<svg width="18" height="19" viewBox="0 0 18 19" fill="none" xmlns="http://www.w3.org/2000/svg">
<g clip-path="url(#clip0_43_144)">
<path d="M0.760254 12.4846V13.8576C0.760254 15.4444 1.92641 16.7637 3.44667 17.004V18.0191H4.44504V17.0432H12.7811V18.0191H13.7795V17.004C15.2998 16.7637 16.4659 15.4444 16.4659 13.8576V12.4846H0.760254Z" fill="#131212"/>
<path d="M1.75866 9.48807V3.72824C1.75866 2.76388 2.54325 1.97933 3.50761 1.97933C4.40072 1.97933 5.13909 2.65234 5.24342 3.51776C4.20382 3.7519 3.42475 4.68205 3.42475 5.79133V6.45702H8.08671V5.79133C8.08671 4.67406 7.29643 3.73836 6.24568 3.5126C6.13516 2.09826 4.94981 0.980957 3.50761 0.980957C1.99274 0.980957 0.760294 2.21337 0.760294 3.72824V9.48807H0.0942383V11.4864H17.1321V9.48807H1.75866Z" fill="#131212"/>
</g>
<defs>
<clipPath id="clip0_43_144">
<rect width="17.0382" height="17.0382" fill="white" transform="translate(0.09375 0.980957)"/>
</clipPath>
</defs>
</svg>
