<svg width="35" height="33" viewBox="0 0 35 33" fill="none" xmlns="http://www.w3.org/2000/svg">
<path d="M29.8349 13.8784C29.944 14.1416 30.1985 14.3005 30.4667 14.3005C30.5539 14.3005 30.6425 14.2837 30.7281 14.2483L32.5963 13.4744C32.9451 13.33 33.1107 12.9301 32.9662 12.5813C32.8217 12.2325 32.4219 12.0669 32.073 12.2114L30.2048 12.9852C29.8561 13.1297 29.6904 13.5295 29.8349 13.8784Z" fill="black"/>
<path d="M34.3164 19.6523H28.0046C27.6511 14.165 23.0751 9.80859 17.5 9.80859C11.9249 9.80859 7.34897 14.165 6.99542 19.6523H0.683594C0.306113 19.6523 0 19.9585 0 20.3359C0 20.7134 0.306113 21.0195 0.683594 21.0195H14.4238C14.8013 21.0195 15.1074 20.7134 15.1074 20.3359C15.1074 19.9585 14.8013 19.6523 14.4238 19.6523H8.36534C8.71616 14.9195 12.679 11.1758 17.5 11.1758C22.321 11.1758 26.2838 14.9195 26.6347 19.6523H20.5762C20.1987 19.6523 19.8926 19.9585 19.8926 20.3359C19.8926 20.7134 20.1987 21.0195 20.5762 21.0195H34.3164C34.6939 21.0195 35 20.7134 35 20.3359C35 19.9585 34.6939 19.6523 34.3164 19.6523Z" fill="black"/>
<path d="M17.5 8.17135C17.8775 8.17135 18.1836 7.86523 18.1836 7.48775V1.03271C18.1836 0.655234 17.8775 0.349121 17.5 0.349121C17.1225 0.349121 16.8164 0.655234 16.8164 1.03271V7.48782C16.8164 7.8653 17.1225 8.17135 17.5 8.17135Z" fill="black"/>
<path d="M22.6092 8.00086C22.6948 8.03627 22.7833 8.05309 22.8705 8.05309C23.1387 8.05309 23.3932 7.89415 23.5024 7.6309L24.2762 5.76264C24.4206 5.4138 24.255 5.01397 23.9062 4.86945C23.5574 4.72528 23.1575 4.89071 23.013 5.23942L22.2392 7.10768C22.0948 7.45645 22.2604 7.85635 22.6092 8.00086Z" fill="black"/>
<path d="M26.585 11.9344C26.76 11.9344 26.9349 11.8676 27.0684 11.7342L31.6981 7.10446C31.965 6.83752 31.965 6.40467 31.6981 6.13766C31.4311 5.87078 30.9984 5.87078 30.7313 6.13766L26.1016 10.7674C25.8346 11.0343 25.8346 11.4672 26.1016 11.7342C26.2351 11.8677 26.4101 11.9344 26.585 11.9344Z" fill="black"/>
<path d="M11.4974 7.63094C11.6065 7.89419 11.861 8.05312 12.1293 8.05312C12.2164 8.05312 12.305 8.03631 12.3906 8.0009C12.7394 7.85639 12.905 7.45648 12.7606 7.10772L11.9867 5.23945C11.8422 4.89068 11.4424 4.72525 11.0936 4.86949C10.7447 5.014 10.5791 5.41391 10.7236 5.76268L11.4974 7.63094Z" fill="black"/>
<path d="M2.4036 14.8225L4.2718 15.5963C4.35738 15.6318 4.44598 15.6486 4.53313 15.6486C4.80138 15.6486 5.05588 15.4897 5.16491 15.2264C5.30942 14.8776 5.14379 14.4778 4.79502 14.3333L2.92682 13.5595C2.57792 13.4151 2.17822 13.5807 2.03364 13.9294C1.8892 14.2782 2.05483 14.6781 2.4036 14.8225Z" fill="black"/>
<path d="M7.93179 11.7344C8.0653 11.8679 8.24023 11.9346 8.41516 11.9346C8.59009 11.9346 8.76502 11.8679 8.89853 11.7344C9.16547 11.4675 9.16547 11.0346 8.89853 10.7676L4.26882 6.1379C4.00181 5.87103 3.56909 5.87103 3.30201 6.1379C3.03507 6.40484 3.03507 6.8377 3.30201 7.10471L7.93179 11.7344Z" fill="black"/>
<path d="M29.0282 24.6857C28.5157 25.1984 27.8342 25.4806 27.1093 25.4806C26.3844 25.4806 25.703 25.1984 25.1904 24.6857C23.5992 23.0947 21.0101 23.0947 19.4189 24.6857C18.9063 25.1984 18.2248 25.4806 17.5 25.4806C16.7751 25.4806 16.0936 25.1984 15.581 24.6857C13.9898 23.0947 11.4007 23.0947 9.80953 24.6857C9.29698 25.1984 8.61543 25.4806 7.89062 25.4806C7.16573 25.4806 6.48426 25.1984 5.9717 24.6857C5.70476 24.419 5.27204 24.4189 5.0049 24.6857C4.73795 24.9527 4.73795 25.3855 5.0049 25.6525C5.77565 26.4233 6.80056 26.8478 7.89062 26.8478C8.98068 26.8478 10.0055 26.4233 10.7763 25.6525C11.8345 24.5944 13.5562 24.5944 14.6143 25.6525C15.3851 26.4233 16.41 26.8478 17.5 26.8478C18.5901 26.8478 19.6149 26.4233 20.3858 25.6525C21.4438 24.5944 23.1655 24.5944 24.2237 25.6525C24.9945 26.4233 26.0194 26.8478 27.1094 26.8478C28.1995 26.8478 29.2243 26.4233 29.9952 25.6525C30.2621 25.3856 30.2621 24.9527 29.9952 24.6857C29.728 24.4189 29.2951 24.4189 29.0282 24.6857Z" fill="black"/>
<path d="M24.2236 30.4907C23.7111 31.0033 23.0295 31.2856 22.3047 31.2856C21.5798 31.2856 20.8983 31.0033 20.3857 30.4907C19.615 29.7199 18.5901 29.2954 17.5 29.2954C16.41 29.2954 15.3851 29.7199 14.6143 30.4907C14.1017 31.0033 13.4202 31.2856 12.6953 31.2856C11.9704 31.2856 11.2889 31.0033 10.7764 30.4907C10.5094 30.2238 10.0767 30.2238 9.80958 30.4907C9.54264 30.7576 9.54264 31.1905 9.80958 31.4575C11.4009 33.0487 13.9899 33.0485 15.5811 31.4575C16.0937 30.9449 16.7751 30.6626 17.5 30.6626C18.2249 30.6626 18.9064 30.9449 19.4189 31.4575C20.2146 32.2531 21.2596 32.6508 22.3047 32.6508C23.3497 32.6508 24.3948 32.2531 25.1904 31.4575C25.4574 31.1905 25.4574 30.7577 25.1904 30.4907C24.9234 30.2238 24.4907 30.2238 24.2236 30.4907Z" fill="black"/>
<path d="M17.9832 20.8192C18.1104 20.6921 18.1836 20.5157 18.1836 20.3359C18.1836 20.1562 18.1104 19.9798 17.9832 19.8527C17.8562 19.7256 17.6798 19.6523 17.5 19.6523C17.3195 19.6523 17.1438 19.7255 17.0167 19.8527C16.8896 19.9798 16.8164 20.1562 16.8164 20.3359C16.8164 20.5157 16.8895 20.6921 17.0167 20.8192C17.1439 20.9464 17.3202 21.0195 17.5 21.0195C17.6798 21.0195 17.8562 20.9464 17.9832 20.8192Z" fill="black"/>
</svg>
