<svg width="21" height="21" viewBox="0 0 21 21" fill="none" xmlns="http://www.w3.org/2000/svg">
<path d="M17.5142 9.52353C17.1248 9.3526 16.7041 9.26453 16.2789 9.26489H5.16143C4.73622 9.26448 4.31558 9.35243 3.92615 9.52314C3.37576 9.76384 2.90741 10.1597 2.57835 10.6622C2.24929 11.1648 2.07377 11.7524 2.07324 12.3531V16.6765C2.07324 16.8403 2.13831 16.9974 2.25414 17.1133C2.36997 17.2291 2.52707 17.2942 2.69088 17.2942C2.85469 17.2942 3.01178 17.2291 3.12761 17.1133C3.24344 16.9974 3.30852 16.8403 3.30852 16.6765V16.3677C3.30952 16.2861 3.34237 16.2082 3.40007 16.1505C3.45777 16.0928 3.53574 16.0599 3.61733 16.0589H17.823C17.9046 16.0599 17.9825 16.0928 18.0402 16.1505C18.0979 16.2082 18.1308 16.2861 18.1318 16.3677V16.6765C18.1318 16.8403 18.1969 16.9974 18.3127 17.1133C18.4285 17.2291 18.5856 17.2942 18.7494 17.2942C18.9132 17.2942 19.0703 17.2291 19.1862 17.1133C19.302 16.9974 19.3671 16.8403 19.3671 16.6765V12.3531C19.3665 11.7524 19.1909 11.165 18.8619 10.6625C18.5328 10.16 18.0645 9.76419 17.5142 9.52353Z" fill="#131212"/>
<path d="M15.3523 3.70605H6.08775C5.51443 3.70605 4.96458 3.93381 4.55918 4.33921C4.15378 4.74461 3.92603 5.29446 3.92603 5.86778V8.64715C3.92604 8.67107 3.93162 8.69467 3.94232 8.71607C3.95302 8.73748 3.96854 8.7561 3.98767 8.77048C4.0068 8.78485 4.02901 8.79458 4.05254 8.7989C4.07608 8.80323 4.10029 8.80202 4.12328 8.79538C4.46046 8.69676 4.81 8.64685 5.1613 8.64715H5.32459C5.3627 8.64739 5.39955 8.63353 5.42806 8.60823C5.45657 8.58293 5.47471 8.54798 5.479 8.51011C5.51268 8.20831 5.65636 7.9295 5.88258 7.72692C6.1088 7.52434 6.40172 7.41218 6.70539 7.41187H8.86712C9.17099 7.4119 9.46419 7.52392 9.69065 7.72653C9.91712 7.92914 10.061 8.20811 10.0947 8.51011C10.099 8.54798 10.1171 8.58293 10.1456 8.60823C10.1741 8.63353 10.211 8.64739 10.2491 8.64715H11.1933C11.2314 8.64739 11.2683 8.63353 11.2968 8.60823C11.3253 8.58293 11.3434 8.54798 11.3477 8.51011C11.3814 8.20851 11.5249 7.92986 11.7509 7.7273C11.9768 7.52475 12.2695 7.41247 12.5729 7.41187H14.7347C15.0385 7.4119 15.3317 7.52392 15.5582 7.72653C15.7847 7.92914 15.9285 8.20811 15.9622 8.51011C15.9665 8.54798 15.9846 8.58293 16.0132 8.60823C16.0417 8.63353 16.0785 8.64739 16.1166 8.64715H16.2788C16.6301 8.64698 16.9796 8.69702 17.3168 8.79577C17.3398 8.80242 17.364 8.80362 17.3876 8.79927C17.4112 8.79493 17.4334 8.78516 17.4525 8.77075C17.4717 8.75633 17.4872 8.73765 17.4979 8.7162C17.5085 8.69475 17.5141 8.67111 17.514 8.64715V5.86778C17.514 5.29446 17.2863 4.74461 16.8809 4.33921C16.4755 3.93381 15.9256 3.70605 15.3523 3.70605Z" fill="#131212"/>
</svg>
