<svg width="29" height="30" viewBox="0 0 29 30" fill="none" xmlns="http://www.w3.org/2000/svg">
<g clip-path="url(#clip0_45_1972)">
<path d="M13.7444 14.9158C13.6423 14.9514 13.5425 14.9929 13.4453 15.0402C12.736 15.4154 12.1887 16.0373 11.9069 16.7886C11.444 17.8683 9.29801 21.4927 1.11466 22.733C0.849937 22.7699 0.61311 22.9169 0.462559 23.1377C0.314688 23.3558 0.266235 23.6264 0.32923 23.8823C0.511533 24.5432 0.837426 25.1557 1.28366 25.6761C1.31339 25.7292 1.35309 25.7761 1.40056 25.8141C2.25334 26.7269 3.30902 27.426 4.48217 27.8549C4.49485 27.8601 4.50659 27.8662 4.51973 27.8704C5.07526 28.0893 5.64474 28.2709 6.22438 28.4141C7.24929 28.6674 8.29469 28.8293 9.34824 28.8976C9.36699 28.9015 9.38597 28.9041 9.40505 28.9056C9.41021 28.9056 9.41538 28.9023 9.42007 28.9023C9.69706 28.9183 9.97827 28.9296 10.2651 28.9296C12.0834 28.9296 14.089 28.5629 15.6992 27.3629C16.4743 27.8916 17.4653 27.9887 18.3283 27.6207C19.0491 28.4264 20.0675 28.9032 21.148 28.9408C22.2284 28.9783 23.2775 28.5735 24.0526 27.8197C25.1022 28.3149 26.342 28.1718 27.2512 27.4504C28.1605 26.729 28.5818 25.5543 28.3382 24.4195C28.0946 23.2847 27.2284 22.3863 26.1032 22.1016C25.7582 20.9017 24.8137 19.9679 23.6099 19.6367C22.4062 19.3055 21.1169 19.6246 20.2066 20.4791C19.6821 20.1875 19.0737 20.0841 18.4823 20.1861C18.4441 19.4368 18.3615 18.6905 18.2349 17.951C18.0849 17.0547 17.6306 16.2375 16.9485 15.6369L19.4522 2.68517C19.5378 2.26082 19.4499 1.81986 19.2081 1.46079C18.8397 0.905425 18.172 0.628113 17.5186 0.759146C16.8652 0.890179 16.356 1.40351 16.2302 2.05796L13.7444 14.9158ZM19.9926 21.4575C20.1918 21.6091 20.475 21.5777 20.6362 21.3861C21.2931 20.6071 22.3392 20.275 23.3251 20.5323C24.3111 20.7896 25.0615 21.5906 25.2539 22.5912C25.2921 22.7881 25.4511 22.939 25.6497 22.9668C26.5053 23.0872 27.2013 23.7166 27.4071 24.5558C27.6128 25.395 27.2868 26.2749 26.5839 26.7774C25.881 27.2799 24.943 27.3037 24.2155 26.8376C24.0178 26.7112 23.7573 26.7501 23.6051 26.9287C23.0041 27.6406 22.1089 28.0365 21.1778 28.0021C20.2467 27.9677 19.3832 27.5069 18.8363 26.7526C18.6919 26.5538 18.4185 26.4999 18.2095 26.6291C17.6067 27.0019 16.8424 26.9913 16.2502 26.6019C15.658 26.2124 15.3453 25.5149 15.4487 24.8137C15.5521 24.1126 16.0527 23.5349 16.7321 23.333C16.9289 23.274 17.0646 23.0939 17.0668 22.8884C17.0821 21.8915 17.8923 21.0901 18.8893 21.0856C19.288 21.0843 19.676 21.2151 19.9926 21.4575ZM16.1504 22.5494C15.1466 22.9925 14.4969 23.9841 14.4913 25.0813C14.4919 25.6647 14.6784 26.2327 15.0237 26.7029C13.879 27.4623 12.55 27.8974 11.1778 27.962C11.9744 27.4358 12.6926 26.7996 13.311 26.0724C13.4772 25.8731 13.4505 25.5768 13.2512 25.4106C13.0519 25.2444 12.7557 25.2712 12.5895 25.4705C11.6776 26.5165 10.56 27.3635 9.30646 27.9587C8.34375 27.8878 7.38883 27.735 6.45207 27.5019C6.36804 27.4808 6.29292 27.4549 6.21124 27.4352C8.72009 26.577 11.5937 25.0991 13.3003 22.5875C13.4412 22.3732 13.3841 22.0854 13.1719 21.9412C12.9597 21.797 12.6711 21.8498 12.5237 22.0598C10.6787 24.7771 7.2774 26.2019 4.68874 26.9259C3.97141 26.6419 3.30038 26.2526 2.69771 25.771C4.53007 25.5084 6.30988 24.9599 7.97222 24.1456C8.12171 24.0666 8.21711 23.9132 8.22197 23.7442C8.22683 23.5751 8.1404 23.4165 7.9957 23.329C7.85101 23.2414 7.67042 23.2385 7.52294 23.3213C5.80702 24.2574 3.36061 24.7334 1.89679 24.9489C1.59527 24.5689 1.37478 24.1311 1.24892 23.6626C8.46423 22.5682 11.2956 19.6176 12.336 17.9693C12.5135 18.1403 12.7072 18.2938 12.9143 18.4275C13.6032 18.8583 14.4024 19.0796 15.2148 19.0646C15.2678 19.0646 15.3204 19.0646 15.3739 19.0617C16.0617 19.0502 16.7446 18.9431 17.403 18.7434C17.4842 19.3275 17.5335 19.9155 17.5508 20.5049C16.7882 20.9279 16.2693 21.6855 16.1504 22.5494ZM17.2358 17.8036C16.6253 18.0063 15.9872 18.1142 15.3439 18.1233C14.6706 18.1627 14.0016 17.994 13.4275 17.6402C13.1923 17.492 12.9819 17.3078 12.804 17.0942C13.0029 16.5786 13.3773 16.1497 13.8613 15.883C14.396 15.636 15.0106 15.6283 15.5514 15.8618C16.3881 16.2066 17.0127 16.9265 17.2358 17.8036ZM17.1523 2.23589C17.2262 1.8572 17.5911 1.60851 17.9706 1.67816C18.1572 1.7145 18.3216 1.82384 18.4273 1.98191C18.5303 2.13505 18.5677 2.32307 18.5311 2.50396L16.0969 15.0858C16.026 15.0525 15.956 15.0144 15.8842 14.9863C15.5157 14.8448 15.1254 14.7686 14.7307 14.7609L17.1523 2.23589Z" fill="black"/>
<path d="M22.0726 22.5977C22.2628 22.3718 22.566 22.2753 22.8519 22.3498C23.1377 22.4243 23.3553 22.6565 23.411 22.9465C23.4536 23.1675 23.647 23.3273 23.8721 23.3273C23.902 23.3272 23.9318 23.3244 23.9613 23.3188C24.0835 23.2953 24.1914 23.2241 24.2613 23.121C24.3311 23.0179 24.3571 22.8913 24.3335 22.7691C24.2091 22.1236 23.7249 21.6071 23.0889 21.4413C22.4528 21.2754 21.7781 21.4897 21.3543 21.9921C21.187 22.1904 21.2123 22.4868 21.4106 22.654C21.609 22.8213 21.9053 22.7961 22.0726 22.5977Z" fill="black"/>
<path d="M24.6479 16.9261C24.6479 17.8336 25.3836 18.5693 26.2911 18.5693C27.1986 18.5693 27.9342 17.8336 27.9342 16.9261C27.9342 16.0186 27.1986 15.283 26.2911 15.283C25.3836 15.283 24.6479 16.0186 24.6479 16.9261ZM26.9953 16.9261C26.9953 17.315 26.68 17.6303 26.2911 17.6303C25.9022 17.6303 25.5869 17.315 25.5869 16.9261C25.5869 16.5372 25.9022 16.2219 26.2911 16.2219C26.68 16.2219 26.9953 16.5372 26.9953 16.9261Z" fill="black"/>
<path d="M23.2409 15.2831C24.0188 15.2831 24.6493 14.6526 24.6493 13.8747C24.6493 13.0969 24.0188 12.4663 23.2409 12.4663C22.4631 12.4663 21.8325 13.0969 21.8325 13.8747C21.8325 14.6526 22.4631 15.2831 23.2409 15.2831ZM23.2409 13.4053C23.5002 13.4053 23.7104 13.6154 23.7104 13.8747C23.7104 14.134 23.5002 14.3442 23.2409 14.3442C22.9817 14.3442 22.7715 14.134 22.7715 13.8747C22.7715 13.6154 22.9817 13.4053 23.2409 13.4053Z" fill="black"/>
<path d="M3.52269 11.5271C3.78198 11.5271 3.99217 11.3169 3.99217 11.0576V10.1186C3.99217 9.85936 3.78198 9.64917 3.52269 9.64917C3.26341 9.64917 3.05322 9.85936 3.05322 10.1186V11.0576C3.05322 11.3169 3.26341 11.5271 3.52269 11.5271Z" fill="black"/>
<path d="M3.99217 13.8747V12.9358C3.99217 12.6765 3.78198 12.4663 3.52269 12.4663C3.26341 12.4663 3.05322 12.6765 3.05322 12.9358V13.8747C3.05322 14.134 3.26341 14.3442 3.52269 14.3442C3.78198 14.3442 3.99217 14.134 3.99217 13.8747Z" fill="black"/>
<path d="M1.64281 12.466H2.58175C2.84104 12.466 3.05122 12.2559 3.05122 11.9966C3.05122 11.7373 2.84104 11.5271 2.58175 11.5271H1.64281C1.38353 11.5271 1.17334 11.7373 1.17334 11.9966C1.17334 12.2559 1.38353 12.466 1.64281 12.466Z" fill="black"/>
<path d="M4.46068 12.466H5.39962C5.65891 12.466 5.8691 12.2559 5.8691 11.9966C5.8691 11.7373 5.65891 11.5271 5.39962 11.5271H4.46068C4.2014 11.5271 3.99121 11.7373 3.99121 11.9966C3.99121 12.2559 4.2014 12.466 4.46068 12.466Z" fill="black"/>
<path d="M5.30409 17.5329L4.59988 18.2371C4.47784 18.355 4.42889 18.5295 4.47186 18.6937C4.51482 18.8578 4.64301 18.986 4.80715 19.029C4.97129 19.0719 5.14584 19.023 5.26371 18.9009L5.96792 18.1967C6.14583 18.0125 6.14329 17.7197 5.9622 17.5386C5.78111 17.3575 5.4883 17.355 5.30409 17.5329Z" fill="black"/>
<path d="M8.07876 15.4204C7.89543 15.2371 7.59825 15.2371 7.41493 15.4204L6.71072 16.1246C6.58868 16.2425 6.53973 16.417 6.58269 16.5812C6.62566 16.7453 6.75385 16.8735 6.91799 16.9165C7.08213 16.9594 7.25668 16.9105 7.37455 16.7885L8.07876 16.0842C8.26203 15.9009 8.26203 15.6037 8.07876 15.4204Z" fill="black"/>
<path d="M7.37374 17.5329C7.18953 17.355 6.89672 17.3575 6.71563 17.5386C6.53454 17.7197 6.53199 18.0125 6.70991 18.1967L7.41412 18.9009C7.59833 19.0789 7.89114 19.0763 8.07223 18.8952C8.25332 18.7141 8.25587 18.4213 8.07795 18.2371L7.37374 17.5329Z" fill="black"/>
<path d="M5.96711 16.1246L5.2629 15.4204C5.07869 15.2424 4.78588 15.245 4.60479 15.4261C4.4237 15.6072 4.42115 15.9 4.59907 16.0842L5.30328 16.7884C5.48749 16.9663 5.7803 16.9638 5.96139 16.7827C6.14248 16.6016 6.14503 16.3088 5.96711 16.1246Z" fill="black"/>
<path d="M5.78882 5.45776L13.7698 6.86618C13.7969 6.87106 13.8244 6.87342 13.852 6.87322C14.0945 6.87198 14.2962 6.68618 14.3173 6.44454C14.3384 6.2029 14.1719 5.98499 13.9332 5.94179L5.9522 4.53337C5.69992 4.49449 5.4628 4.6643 5.41837 4.91566C5.37395 5.16702 5.5385 5.40782 5.78882 5.45776Z" fill="black"/>
<path d="M13.2998 9.21374C13.3269 9.21862 13.3544 9.22098 13.382 9.22078C13.6245 9.21955 13.8262 9.03374 13.8473 8.7921C13.8684 8.55046 13.7019 8.33255 13.4632 8.28935L8.3746 7.39078C8.1192 7.34567 7.8756 7.51613 7.83048 7.77152C7.78537 8.02692 7.95583 8.27053 8.21122 8.31564L13.2998 9.21374Z" fill="black"/>
<path d="M6.29478 9.88997C6.27308 10.0126 6.30101 10.1389 6.37242 10.2409C6.44383 10.343 6.55286 10.4125 6.67552 10.4341L12.8279 11.52C12.8549 11.5246 12.8823 11.527 12.9096 11.527C13.1532 11.5271 13.3564 11.341 13.3775 11.0983C13.3987 10.8557 13.2308 10.6371 12.9908 10.5951L6.83843 9.50829C6.71571 9.48675 6.58947 9.51487 6.4875 9.58646C6.38553 9.65805 6.3162 9.76724 6.29478 9.88997Z" fill="black"/>
</g>
<defs>
<clipPath id="clip0_45_1972">
<rect width="28.6378" height="28.6378" fill="white" transform="translate(0 0.729492)"/>
</clipPath>
</defs>
</svg>
