<svg width="29" height="30" viewBox="0 0 29 30" fill="none" xmlns="http://www.w3.org/2000/svg">
<path d="M7.80908 14.1238C7.80908 13.764 7.51796 13.4729 7.1582 13.4729C6.79844 13.4729 6.50732 13.764 6.50732 14.1238C6.50732 15.8329 8.39253 18.1796 8.60738 18.4421C8.73643 18.5985 8.92327 18.6798 9.11139 18.6798C9.25631 18.6798 9.4025 18.6315 9.52387 18.5323C9.80162 18.3041 9.84165 17.8942 9.61411 17.6158C8.91631 16.7654 7.80908 15.0657 7.80908 14.1238Z" fill="black"/>
<path d="M21.4768 13.4729C21.117 13.4729 20.8259 13.764 20.8259 14.1238C20.8259 15.0625 19.7186 16.7641 19.0208 17.6164C18.7932 17.8942 18.8339 18.3042 19.1117 18.5323C19.2325 18.6315 19.3787 18.6798 19.5242 18.6798C19.7123 18.6798 19.8985 18.5985 20.0276 18.4421C20.2424 18.1796 22.1276 15.833 22.1276 14.1238C22.1276 13.764 21.8365 13.4729 21.4768 13.4729Z" fill="black"/>
<path d="M14.3188 13.4729C13.9591 13.4729 13.668 13.764 13.668 14.1238V18.0289C13.668 18.3887 13.9591 18.6798 14.3188 18.6798C14.6786 18.6798 14.9697 18.3887 14.9697 18.0289V14.1238C14.9697 13.764 14.6785 13.4729 14.3188 13.4729Z" fill="black"/>
<path d="M21.4783 3.05878C21.0839 3.05878 20.6717 3.11095 20.2437 3.19045C18.8102 1.51941 16.6882 0.455322 14.3189 0.455322C11.9496 0.455322 9.82756 1.51941 8.39412 3.19039C7.96602 3.11095 7.55384 3.05872 7.15948 3.05872C3.21168 3.05878 0 6.27046 0 10.2182C0 12.9233 1.52545 15.3825 3.92041 16.5984L3.90771 26.4343C3.9071 27.1443 4.1829 27.8117 4.68441 28.3138C5.18653 28.8166 5.85327 29.0931 6.56328 29.0931H22.0771C23.5415 29.0931 24.7327 27.9019 24.7327 26.4375V16.5888C27.1187 15.3698 28.6378 12.9144 28.6378 10.2182C28.6378 6.27046 25.4261 3.05878 21.4783 3.05878ZM23.4309 26.4376C23.4309 27.1838 22.8233 27.7914 22.077 27.7914H6.56322C6.20156 27.7914 5.86151 27.6503 5.60536 27.3942C5.34981 27.1381 5.20874 26.798 5.20935 26.4357L5.21277 23.8862H23.4309V26.4376ZM23.8339 15.5757C23.7995 15.5897 23.7671 15.6062 23.7366 15.6259C23.6546 15.6767 23.5872 15.7442 23.537 15.8217C23.4862 15.8985 23.4518 15.9876 23.4379 16.0829C23.4321 16.1191 23.4302 16.1554 23.4308 16.1922V22.5845H5.21441L5.22277 16.2011C5.22338 16.1655 5.22149 16.1293 5.21643 16.0943C5.20245 15.9957 5.16621 15.9042 5.11343 15.8248C5.06382 15.7504 4.99902 15.6856 4.92019 15.636C4.88778 15.6157 4.85343 15.5978 4.81786 15.5832C2.68162 14.649 1.3017 12.5451 1.3017 10.2182C1.3017 6.98803 3.92931 4.36047 7.15942 4.36047C7.28567 4.36047 7.41893 4.37573 7.54969 4.38604C6.89119 5.53049 6.50854 6.853 6.50854 8.26562C6.50854 8.62539 6.79966 8.9165 7.15942 8.9165C7.51918 8.9165 7.8103 8.62539 7.8103 8.26562C7.8103 4.67697 10.7303 1.75702 14.3189 1.75702C17.9076 1.75702 20.8274 4.67697 20.8274 8.26562C20.8274 8.62539 21.1186 8.9165 21.4783 8.9165C21.8381 8.9165 22.1292 8.62539 22.1292 8.26562C22.1292 6.853 21.7466 5.53055 21.0881 4.38604C21.2188 4.37573 21.3521 4.36047 21.4783 4.36047C24.7085 4.36047 27.3361 6.98809 27.3361 10.2182C27.3361 12.5369 25.9619 14.6382 23.8339 15.5757Z" fill="black"/>
</svg>
