<svg width="24" height="24" viewBox="0 0 24 24" fill="none" xmlns="http://www.w3.org/2000/svg">
<path d="M8.96173 18.9109L9.49238 18.2377L8.96173 18.9109ZM12 5.50063L11.3824 6.09503C11.544 6.26291 11.767 6.35778 12 6.35778C12.233 6.35778 12.456 6.26291 12.6176 6.09503L12 5.50063ZM15.0383 18.9109L15.5689 19.584L15.0383 18.9109ZM9.49238 18.2377C7.97036 17.0379 6.32491 15.8798 5.0184 14.4086C3.74127 12.9705 2.85714 11.3011 2.85714 9.1371H1.14286C1.14286 11.8361 2.26844 13.8938 3.73661 15.547C5.17538 17.1671 7.0108 18.4644 8.43109 19.584L9.49238 18.2377ZM2.85714 9.1371C2.85714 7.02632 4.0497 5.26178 5.6689 4.52164C7.23407 3.8062 9.35189 3.98536 11.3824 6.09503L12.6176 4.90623C10.1483 2.34073 7.26609 1.90667 4.95622 2.96252C2.70038 3.99367 1.14286 6.38495 1.14286 9.1371H2.85714ZM8.43109 19.584C8.94234 19.987 9.49799 20.4224 10.0628 20.7524C10.6273 21.0823 11.2824 21.3571 12 21.3571V19.6429C11.7176 19.6429 11.3727 19.5324 10.9277 19.2723C10.4829 19.0124 10.0194 18.6532 9.49238 18.2377L8.43109 19.584ZM15.5689 19.584C16.9892 18.4644 18.8246 17.1671 20.2634 15.547C21.7316 13.8938 22.8571 11.8361 22.8571 9.1371H21.1429C21.1429 11.3011 20.2587 12.9705 18.9816 14.4086C17.6751 15.8798 16.0296 17.0379 14.5076 18.2377L15.5689 19.584ZM22.8571 9.1371C22.8571 6.38495 21.2996 3.99367 19.0438 2.96252C16.7339 1.90667 13.8517 2.34073 11.3824 4.90623L12.6176 6.09503C14.6481 3.98536 16.7659 3.8062 18.3311 4.52164C19.9503 5.26178 21.1429 7.02632 21.1429 9.1371H22.8571ZM14.5076 18.2377C13.9806 18.6532 13.5171 19.0124 13.0723 19.2723C12.6273 19.5324 12.2824 19.6429 12 19.6429V21.3571C12.7176 21.3571 13.3727 21.0823 13.9372 20.7524C14.502 20.4224 15.0577 19.987 15.5689 19.584L14.5076 18.2377Z" fill="#161117"/>
</svg>
