<svg width="29" height="29" viewBox="0 0 29 29" fill="none" xmlns="http://www.w3.org/2000/svg">
<g clip-path="url(#clip0_45_1957)">
<path d="M27.9121 15.6279H24.1234L21.4177 12.6564C21.1601 12.3736 20.7272 12.3392 20.4283 12.5778L18.7498 13.9179L14.3217 6.92345C14.1887 6.71333 13.9573 6.58594 13.7086 6.58594C13.46 6.58594 13.2286 6.71333 13.0955 6.92345L9.31454 12.8958L7.8969 10.8213C7.76169 10.6234 7.53745 10.505 7.29774 10.505C7.05803 10.505 6.83388 10.6234 6.69858 10.8213L3.41387 15.6279H0.72567C0.324858 15.6279 0 15.9528 0 16.3536C0 16.7544 0.324858 17.0793 0.72567 17.0793H2.42204L1.84457 17.9242C1.61841 18.2551 1.70339 18.7066 2.03429 18.9328C2.15951 19.0184 2.30207 19.0594 2.44309 19.0594C2.67474 19.0594 2.90236 18.9487 3.0429 18.7431L3.32268 18.3336L7.29782 12.5169L8.46929 14.2312L5.87204 18.3337L3.99401 21.3003C3.77961 21.6389 3.88032 22.0871 4.21896 22.3015C4.33943 22.3777 4.47367 22.4141 4.60647 22.4141C4.84683 22.4141 5.08211 22.2947 5.22023 22.0765L5.56508 21.5318L13.7087 8.66837L20.3248 19.119L20.49 19.3799C20.7043 19.7185 21.1526 19.8192 21.4913 19.6049C21.7994 19.4097 21.9097 19.0211 21.7656 18.6975C21.7513 18.6656 21.7355 18.634 21.7162 18.6036L19.5308 15.1516L20.8025 14.1364L25.1603 18.9225L25.6682 19.4803C25.8114 19.6376 26.0079 19.7174 26.205 19.7174C26.3794 19.7174 26.5543 19.6549 26.6934 19.5283C26.9897 19.2585 27.0112 18.7995 26.7414 18.5032L25.4449 17.0793H27.9122C28.313 17.0793 28.6378 16.7544 28.6378 16.3536C28.6378 15.9528 28.3129 15.6279 27.9121 15.6279Z" fill="black"/>
</g>
<defs>
<clipPath id="clip0_45_1957">
<rect width="28.6378" height="28.6378" fill="white" transform="translate(0 0.181152)"/>
</clipPath>
</defs>
</svg>
