<svg width="29" height="29" viewBox="0 0 29 29" fill="none" xmlns="http://www.w3.org/2000/svg">
<g clip-path="url(#clip0_45_2001)">
<path d="M16.1765 5.54252C16.3279 5.25243 16.4084 4.93058 16.4113 4.60338C16.4113 3.43969 15.468 2.49634 14.3043 2.49634C13.1406 2.49634 12.1972 3.43969 12.1972 4.60338C12.2002 4.93058 12.2807 5.25243 12.432 5.54252C7.39919 5.79537 2.79981 7.08368 2.79981 9.32918C2.79816 9.66164 3.06635 9.93255 3.39881 9.93421C3.41996 9.93428 3.44103 9.9333 3.46203 9.9312H25.2067C25.5392 9.9312 25.8087 9.66164 25.8087 9.32918C25.8087 7.08368 21.2274 5.79537 16.1765 5.54252ZM14.3344 3.70638C14.8264 3.70638 15.2254 4.10529 15.2254 4.59736C15.2254 5.08943 14.8264 5.48834 14.3344 5.48834C13.8423 5.48834 13.4434 5.08943 13.4434 4.59736C13.4434 4.10529 13.8423 3.70638 14.3344 3.70638ZM4.43127 8.75125C5.54499 7.75191 9.16911 6.69237 14.3344 6.69237V6.71645C19.4996 6.71645 23.1238 7.77599 24.2375 8.75125H4.43127Z" fill="black"/>
<path d="M5.56783 12.8333C5.23537 12.8333 4.96582 13.1028 4.96582 13.4353V19.9069C4.96582 20.2394 5.23537 20.5089 5.56783 20.5089C5.90029 20.5089 6.16985 20.2394 6.16985 19.9069V13.4353C6.16985 13.1028 5.90029 12.8333 5.56783 12.8333Z" fill="black"/>
<path d="M28.0357 12.9956H25.8083V11.2739C25.8083 10.9414 25.5387 10.6719 25.2063 10.6719H3.46157C3.12911 10.6719 2.85956 10.9414 2.85956 11.2739V12.9956H0.602013C0.269551 12.9956 0 13.2652 0 13.5977C0 13.9301 0.269551 14.1997 0.602013 14.1997H2.86558V23.0854C2.86558 25.7523 4.77396 26.6975 6.56796 26.6975H22.1601C24.827 26.6975 25.7722 24.8312 25.7722 23.0854V14.1997H28.0357C28.3682 14.1997 28.6377 13.9301 28.6377 13.5977C28.6377 13.2652 28.3682 12.9956 28.0357 12.9956ZM24.6043 23.0854C24.6043 24.1871 24.1829 25.4934 22.1962 25.4934H6.54388C5.61076 25.4934 4.04553 25.1804 4.04553 23.0854V11.8759H24.6043V23.0854Z" fill="black"/>
</g>
<defs>
<clipPath id="clip0_45_2001">
<rect width="28.6378" height="28.6378" fill="white" transform="translate(0 0.277832)"/>
</clipPath>
</defs>
</svg>
