<svg width="18" height="19" viewBox="0 0 18 19" fill="none" xmlns="http://www.w3.org/2000/svg">
<path d="M16.9514 14.4695C16.9514 14.6577 16.8766 14.8383 16.7435 14.9715C16.6103 15.1046 16.4298 15.1794 16.2415 15.1794H7.72235C7.53407 15.1794 7.35349 15.1046 7.22036 14.9715C7.08722 14.8383 7.01242 14.6577 7.01242 14.4695C7.01242 13.3398 7.4612 12.2563 8.26002 11.4575C9.05884 10.6587 10.1423 10.2099 11.272 10.2099H12.6918C13.8215 10.2099 14.905 10.6587 15.7038 11.4575C16.5026 12.2563 16.9514 13.3398 16.9514 14.4695ZM11.9819 3.82056C11.4203 3.82056 10.8712 3.9871 10.4043 4.29913C9.93727 4.61116 9.5733 5.05467 9.35837 5.57356C9.14343 6.09244 9.0872 6.66342 9.19677 7.21426C9.30634 7.76511 9.5768 8.2711 9.97394 8.66824C10.3711 9.06538 10.8771 9.33584 11.4279 9.44541C11.9788 9.55498 12.5497 9.49874 13.0686 9.28381C13.5875 9.06888 14.031 8.70491 14.343 8.23792C14.6551 7.77093 14.8216 7.22191 14.8216 6.66027C14.8216 5.90713 14.5224 5.18484 13.9899 4.65229C13.4573 4.11974 12.7351 3.82056 11.9819 3.82056ZM5.59257 3.82056C5.03093 3.82056 4.4819 3.9871 4.01491 4.29913C3.54793 4.61116 3.18395 5.05467 2.96902 5.57356C2.75409 6.09244 2.69786 6.66342 2.80743 7.21426C2.917 7.76511 3.18745 8.2711 3.58459 8.66824C3.98173 9.06538 4.48772 9.33584 5.03857 9.44541C5.58942 9.55498 6.16039 9.49874 6.67928 9.28381C7.19817 9.06888 7.64167 8.70491 7.9537 8.23792C8.26573 7.77093 8.43228 7.22191 8.43228 6.66027C8.43228 5.90713 8.1331 5.18484 7.60055 4.65229C7.068 4.11974 6.34571 3.82056 5.59257 3.82056ZM5.59257 14.4695C5.59151 13.7238 5.73843 12.9853 6.0248 12.2967C6.31118 11.6082 6.73132 10.9834 7.2609 10.4584C6.82751 10.2948 6.36818 10.2106 5.90494 10.2099H5.2802C4.23392 10.2118 3.23102 10.6282 2.49119 11.3681C1.75135 12.1079 1.33488 13.1108 1.33301 14.1571V14.4695C1.33301 14.6577 1.4078 14.8383 1.54094 14.9715C1.67408 15.1046 1.85465 15.1794 2.04293 15.1794H5.72036C5.63771 14.9517 5.59449 14.7117 5.59257 14.4695Z" fill="#131212"/>
</svg>
