<svg width="29" height="29" viewBox="0 0 29 29" fill="none" xmlns="http://www.w3.org/2000/svg">
<path d="M27.6829 27.0532C27.3802 27.3559 26.9777 27.5227 26.5496 27.5227C26.1215 27.5227 25.719 27.356 25.4163 27.0532C24.3552 25.992 22.6287 25.9922 21.5676 27.0532C21.2649 27.3559 20.8624 27.5227 20.4343 27.5227C20.0062 27.5227 19.6037 27.356 19.301 27.0532C18.2398 25.992 16.5134 25.9921 15.4523 27.0532C15.1495 27.356 14.747 27.5227 14.3189 27.5227C13.8908 27.5227 13.4883 27.356 13.1855 27.0532C12.1245 25.992 10.3979 25.992 9.33681 27.0532C9.0341 27.3559 8.6316 27.5227 8.20349 27.5227C7.77538 27.5227 7.37288 27.356 7.07017 27.0532C6.00912 25.992 4.28258 25.9922 3.22147 27.0532C2.91876 27.356 2.51627 27.5227 2.08816 27.5227C1.66005 27.5227 1.25755 27.356 0.954841 27.0532C0.736478 26.8348 0.38231 26.8348 0.163835 27.0532C-0.0545837 27.2716 -0.0546396 27.6257 0.163835 27.8442C0.67786 28.3582 1.36125 28.6413 2.08816 28.6413C2.81506 28.6413 3.49845 28.3582 4.01248 27.8442C4.63748 27.2193 5.65428 27.2193 6.27917 27.8442C6.79319 28.3582 7.47658 28.6413 8.20349 28.6413C8.93045 28.6413 9.61384 28.3582 10.1279 27.8442C10.7528 27.2193 11.7696 27.2192 12.3945 27.8442C12.9085 28.3582 13.592 28.6413 14.3189 28.6413C15.0458 28.6413 15.7292 28.3582 16.2433 27.8442C16.8681 27.2193 17.885 27.2192 18.5099 27.8442C19.0239 28.3582 19.7073 28.6413 20.4343 28.6413C21.1612 28.6413 21.8446 28.3582 22.3586 27.8442C22.9836 27.2193 24.0004 27.2193 24.6253 27.8442C25.1393 28.3582 25.8227 28.6413 26.5496 28.6413C27.2766 28.6413 27.96 28.3582 28.474 27.8442C28.6924 27.6257 28.6924 27.2716 28.474 27.0532C28.2555 26.8348 27.9013 26.8348 27.6829 27.0532Z" fill="black"/>
<path d="M27.6829 22.5475C27.3802 22.8502 26.9777 23.017 26.5496 23.017C26.1215 23.017 25.719 22.8503 25.4163 22.5475C24.3552 21.4864 22.6287 21.4864 21.5676 22.5475C21.2649 22.8502 20.8624 23.017 20.4343 23.017C20.0061 23.017 19.6036 22.8503 19.3009 22.5475C18.2398 21.4865 16.5133 21.4864 15.4522 22.5475C14.8273 23.1725 13.8105 23.1725 13.1855 22.5475C12.1245 21.4864 10.398 21.4865 9.33684 22.5475C9.03413 22.8502 8.63164 23.017 8.20353 23.017C7.77542 23.017 7.37292 22.8503 7.07021 22.5475C6.0091 21.4864 4.28267 21.4864 3.22151 22.5475C2.9188 22.8502 2.5163 23.017 2.08819 23.017C1.66008 23.017 1.25759 22.8503 0.954876 22.5475C0.736457 22.3292 0.382289 22.3292 0.163814 22.5475C-0.0546047 22.766 -0.0546047 23.1201 0.163814 23.3386C1.22498 24.3997 2.95146 24.3998 4.01251 23.3386C4.63751 22.7137 5.65432 22.7137 6.2792 23.3386C7.34025 24.3998 9.0668 24.3997 10.1279 23.3386C10.7528 22.7136 11.7697 22.7137 12.3945 23.3386C13.4556 24.3997 15.1821 24.3997 16.2432 23.3386C16.8681 22.7137 17.885 22.7135 18.5099 23.3386C19.0405 23.8692 19.7372 24.1345 20.4343 24.1344C21.1311 24.1344 21.8281 23.8691 22.3586 23.3386C22.9836 22.7137 24.0004 22.7137 24.6253 23.3386C25.6863 24.3998 27.4129 24.3997 28.474 23.3386C28.6924 23.1202 28.6924 22.766 28.474 22.5475C28.2555 22.3291 27.9013 22.3291 27.6829 22.5475Z" fill="black"/>
<path d="M0.559373 5.8207H9.58323V17.8245C9.49793 17.8914 9.41537 17.9634 9.33684 18.0419C9.03413 18.3446 8.63164 18.5114 8.20353 18.5114C7.77541 18.5114 7.37292 18.3447 7.07021 18.0419C6.0091 16.9808 4.28267 16.9808 3.22151 18.0419C2.9188 18.3446 2.5163 18.5114 2.08819 18.5114C1.66008 18.5114 1.25759 18.3447 0.954876 18.0419C0.736457 17.8236 0.382289 17.8236 0.163814 18.0419C-0.0546047 18.2603 -0.0546047 18.6145 0.163814 18.833C1.22498 19.894 2.95146 19.8941 4.01251 18.833C4.63751 18.208 5.65432 18.208 6.2792 18.833C7.34025 19.8941 9.0668 19.8941 10.1279 18.833C10.7528 18.208 11.7697 18.208 12.3945 18.833C13.4556 19.8941 15.1821 19.8941 16.2432 18.833C16.8681 18.208 17.885 18.2079 18.5099 18.833C19.0405 19.3636 19.7372 19.6289 20.4343 19.6288C21.1311 19.6287 21.8281 19.3635 22.3586 18.833C22.9836 18.208 24.0004 18.208 24.6253 18.833C25.6863 19.8941 27.4129 19.8941 28.474 18.833C28.6924 18.6146 28.6924 18.2604 28.474 18.0419C28.2555 17.8236 27.9014 17.8236 27.6829 18.0419C27.3802 18.3446 26.9777 18.5114 26.5496 18.5114C26.1215 18.5114 25.719 18.3447 25.4163 18.0419C25.3377 17.9634 25.2552 17.8914 25.1699 17.8245V5.8207H28.0785C28.3874 5.8207 28.6378 5.57024 28.6378 5.26137C28.6378 4.95251 28.3874 4.70204 28.0785 4.70204H25.1402C24.86 2.06491 22.6224 0.00366211 19.9122 0.00366211C17.202 0.00366211 14.9644 2.06491 14.6843 4.70204H12.9095C12.6293 2.06491 10.3917 0.00366211 7.6815 0.00366211C4.97132 0.00366211 2.73377 2.06491 2.4536 4.70204H0.559373C0.250454 4.70204 4.19501e-05 4.95251 4.19501e-05 5.26137C4.19501e-05 5.57024 0.250454 5.8207 0.559373 5.8207ZM5.86384 4.70204C6.10329 3.92552 6.82752 3.35965 7.6815 3.35965C8.53549 3.35965 9.25977 3.92552 9.49916 4.70204H5.86384ZM21.814 5.8207V7.38683H12.9392V5.8207H21.814ZM21.814 9.62416H12.9392V8.50549H21.814V9.62416ZM12.9392 10.7428H21.814V12.3089H12.9392V10.7428ZM18.0946 4.70204C18.334 3.92552 19.0582 3.35965 19.9122 3.35965C20.7662 3.35965 21.4905 3.92552 21.7299 4.70204H18.0946ZM20.4343 18.5114C20.0061 18.5114 19.6036 18.3447 19.3009 18.0419C18.2398 16.9809 16.5133 16.9808 15.4522 18.0419C14.8273 18.6669 13.8105 18.6669 13.1855 18.0419C13.107 17.9634 13.0245 17.8914 12.9392 17.8245V15.6649H14.8596C15.1685 15.6649 15.4189 15.4145 15.4189 15.1056C15.4189 14.7967 15.1685 14.5463 14.8596 14.5463H12.9392V13.4276H21.814V14.5463H19.8936C19.5847 14.5463 19.3343 14.7967 19.3343 15.1056C19.3343 15.4145 19.5847 15.6649 19.8936 15.6649H21.814V17.8245C21.7287 17.8914 21.6461 17.9634 21.5676 18.0419C21.2649 18.3446 20.8624 18.5114 20.4343 18.5114ZM19.9122 1.12232C22.1945 1.12232 24.0513 2.97908 24.0513 5.26137V17.3044C23.6826 17.2276 23.3013 17.2276 22.9326 17.3044V5.26137C22.9326 3.59597 21.5777 2.24099 19.9122 2.24099C18.4379 2.24099 17.2078 3.30304 16.9446 4.70204H15.812C16.0861 2.68347 17.8197 1.12232 19.9122 1.12232ZM7.6815 1.12232C9.9638 1.12232 11.8206 2.97908 11.8206 5.26137V17.3044C11.4519 17.2275 11.0705 17.2275 10.7019 17.3044V5.26137C10.7019 3.59597 9.34697 2.24099 7.6815 2.24099C6.20722 2.24099 4.97703 3.30304 4.71386 4.70204H3.58133C3.85534 2.68347 5.58905 1.12232 7.6815 1.12232Z" fill="black"/>
<path d="M17.3757 14.5461C17.2281 14.5461 17.0843 14.6059 16.9797 14.71C16.8757 14.8141 16.8164 14.9584 16.8164 15.1055C16.8164 15.2526 16.8757 15.3969 16.9797 15.5009C17.0843 15.6049 17.2281 15.6648 17.3757 15.6648C17.5228 15.6648 17.6671 15.605 17.7712 15.5009C17.8752 15.3969 17.9351 15.2526 17.9351 15.1055C17.9351 14.9584 17.8752 14.8141 17.7712 14.71C17.6671 14.606 17.5228 14.5461 17.3757 14.5461Z" fill="black"/>
</svg>
